# xmcd CD database file
#
# Track frame offsets:
#	150
#	16418
#	29547
#	41502
#	54854
#	66103
#	84208
#	98499
#	108899
#	125209
#	136723
#	147491
#	166536
#	180651
#	192659
#	204272
#	213162
#	225806
#	248250
#
# Disc length: 3502 seconds
#
# Revision: 2
# Processed by: cddbd v1.5.2PL0 Copyright (c) Steve Scherf et al.
# Submitted via: CDex 1.70beta2
#
DISCID=e90dac13
DTITLE=Various Artist - Summer Of The 60's  CD2
DYEAR=2010
DGENRE=NewAge
TTITLE0=The Beach Boys - Good Vibrations
TTITLE1=Herman's Hermits - No Milk Today
TTITLE2=The Mamas and The Papas - California Dreamin'
TTITLE3=Scott McKenzie - San Francisco
TTITLE4=The Byrds - Mr. Tambourine Man
TTITLE5=Simon and Garfunkel - Mrs. Robinson
TTITLE6=Sony and Cher - I Got You Babe
TTITLE7=The Lovin' Spoonful - Daydream
TTITLE8=Donovan - Mellow Yellow
TTITLE9=David McWilliams - The Days Of Pearly Spencer
TTITLE10=Manfred Mann - Do Wah Diddy Diddy
TTITLE11=B. Bardot and S. Gainsbourg - Bonnie and Clyde
TTITLE12=Françoise Hardy - Tous Les Garçons and Les Filles
TTITLE13=Jacques Dutronc - Les Cactus
TTITLE14=Christophe - Les Marionettes
TTITLE15=John Barry - James Bond Theme
TTITLE16=Shirley Bassey - Goldfinger
TTITLE17=Wallace Collection - Daydream
TTITLE18=Aphrodite's Child - Rain and Tears
EXTD=YEAR: 2010
EXTT0=
EXTT1=
EXTT2=
EXTT3=
EXTT4=
EXTT5=
EXTT6=
EXTT7=
EXTT8=
EXTT9=
EXTT10=
EXTT11=
EXTT12=
EXTT13=
EXTT14=
EXTT15=
EXTT16=
EXTT17=
EXTT18=
PLAYORDER=
